<svg xmlns="http://www.w3.org/2000/svg" viewBox="0 0 131.22 38.47"><defs><style>.cls-1{fill:#fb775e;}.cls-2{fill:#394662;}</style></defs><title>Accel_Logo_Mira</title><g id="Layer_2" data-name="Layer 2"><g id="Web"><path class="cls-1" d="M19.24,0a19.35,19.35,0,0,0-4,.41A1.24,1.24,0,0,0,14.34,2h0a1.24,1.24,0,0,0,1.44.87A16.79,16.79,0,1,1,4.94,10.49a4.36,4.36,0,0,0,2.73-.11A4.51,4.51,0,0,0,5.2,1.73,4.52,4.52,0,0,0,2.83,9.2,19.23,19.23,0,1,0,19.24,0ZM6.15,4.11a2,2,0,1,1-2,2A2,2,0,0,1,6.15,4.11Z"/><path class="cls-1" d="M19.24,31.11A11.88,11.88,0,1,0,7.36,19.24,11.89,11.89,0,0,0,19.24,31.11Zm0-21.27a9.4,9.4,0,1,1-9.4,9.4A9.41,9.41,0,0,1,19.24,9.84Z"/><path class="cls-2" d="M73.38,29.77H68.15V19.21l-4.68,7.21v0H60.56v0l-4.71-7.28,0,10.63H50.65V8.7h3.9L62,20,69.48,8.7h3.9Z"/><path class="cls-2" d="M83,8.7V29.77H77.78V8.7Z"/><path class="cls-2" d="M100.64,29.77l-4-6.1h-4v6.1H87.42V8.7h9.2c5.23,0,8.73,2.86,8.73,7.41a7.05,7.05,0,0,1-3.56,6.29l4.95,7.37ZM92.65,19h3.87c2,0,3.6-1.12,3.6-2.85s-1.58-2.79-3.6-2.79H92.65Z"/><path class="cls-2" d="M124.22,26.14h-8.93l-1.39,3.63h-5.57l9-21.07h5l8.93,21.07h-5.58Zm-1.71-4.36-2.76-7.1L117,21.78Z"/></g></g></svg>